<svg xmlns="http://www.w3.org/2000/svg" width="546.58203" height="387.42188" viewBox="0 0 1930 1367.6893"><path fill="#E4E5E6" d="M418-.172h218l9 1 3 5 2 16 4 87 3 83 3 122 10 240 5 119 4 154 5 117 4 95v21l13 1v-20l2-63 4-68 5-126 3-124 5-125 4-94 3-72 2-59 2-87 3-85 6-131 1-7h230v1368H821l-1-425v-604l1-32-13 1-1 9-3 77-3 129-6 156-7 177-3 130-4 107-8 196-3 73-1 6H621l-1-1-2-35-9-222-3-73-4-166-7-175-6-146-2-47-4-177-1-18h-13l-1 1060H419l-1-1zM10-.172h145l1 3 12 150 4 74 7 90 8 96 4 76 4 50 10 120 3 54 3 51 2 23h12v-95l1-691 1-1h152v1368H227l-1-1-10-130-4-46-4-60-4-70-13-158-5-93-10-120-5-65-1-21v-22h-15v786H4l-1-5v-1350l-3-1 1-4 4-5zM1195-.172h152l4 125 9 259 2 82 2 101v19l15-1v-62l1-65 10-284 6-173 1-1h151v14l-3 83-2 91-2 61-2 30-7 47-5 33-5 46-10 65-3 26-4 34-11 70-7 61-3 19v9l4 28 5 46 10 65 5 35 3 30 10 66 8 66 9 59 2 19 2 43 4 161 2 51v10h-151l-1-2-7-196-7-204-2-99-1-82-14 1-1 14-3 152-5 152-6 170-3 94h-152v-20l2-45 3-132 2-56 2-25 11-72 6-53 11-71 3-21 4-38 10-64 5-36 4-39 1-6v-9l-4-35-5-39-11-71-4-38-6-42-8-51-7-59-10-65-2-25-2-57-3-130-2-45zM1577-.172h151l4 102 4 117 6 172 2 98 1 60 1 35 14 1 1-95 2-70 4-110 5-145 3-85 2-75 1-5h151l1 5-3 74-1 33-2 96-2 54-2 21-7 46-5 34-5 46-12 77-6 53-10 66-4 26-4 39-1 8v13l6 55 10 64 4 28 5 46 13 84 5 46 10 65 2 17 2 36 2 72 1 55 3 84 1 24-1 1h-151l-1-3-2-73-2-62-2-48-7-207-1-33-2-114-1-42h-11l-3 1-1 33-3 156-12 347-2 44-1 1h-150l-1-1 1-28 2-54 4-155 2-35 12-79 5-46 10-65 6-53 10-65 5-36 4-37 3-19 1-11-5-35-5-45-8-53-6-39-5-47-11-72-5-46-10-64-2-20-2-57-3-122-3-77v-6ZM1010-.172h152l1 5-1 1362-1 1h-151z" style="fill:#fff;fill-opacity:1"/><path fill="#FDFDFD" d="M418-.172h6l2 2-4 4-1 2-1 56-1 13h-1z" style="fill:#fff;fill-opacity:1"/><path fill="#FCFCFC" d="m969 334.828 2 1v59l-2 2-1-9v-33z" style="fill:#fff;fill-opacity:1"/><path fill="#FDFDFD" d="M227-.172h6v2l-5 2 1 33-1 21h-1zM1778-.172l2 1-1 34-2-3v-27Z" style="fill:#fff;fill-opacity:1"/><path fill="#FAFAFA" d="m644 .828 3 2 1 8h-2l-2-4-3-3v-2z" style="fill:#fff;fill-opacity:1"/></svg>